<?xml version="1.0" standalone="no"?>
<!DOCTYPE svg PUBLIC "-//W3C//DTD SVG 20010904//EN"
 "http://www.w3.org/TR/2001/REC-SVG-20010904/DTD/svg10.dtd">
<svg version="1.0" xmlns="http://www.w3.org/2000/svg"
 width="300.000000pt" height="300.000000pt" viewBox="0 0 300.000000 300.000000"
 preserveAspectRatio="xMidYMid meet">
<metadata>
Created by potrace 1.10, written by Peter Selinger 2001-2011
</metadata>
<g transform="translate(0.000000,300.000000) scale(0.100000,-0.100000)"
fill="#000000" stroke="none">
<path d="M1387 2323 c-2 -4 -2 -53 2 -108 8 -131 27 -129 23 3 -2 87 -12 128
-25 105z"/>
<path d="M1738 2228 c-32 -39 -68 -99 -68 -113 0 -15 28 -2 37 18 6 12 29 43
53 69 37 42 45 68 21 68 -5 0 -24 -19 -43 -42z"/>
<path d="M1450 2152 c0 -16 52 -30 180 -48 l35 -5 -36 20 c-20 11 -49 22 -65
25 -16 2 -29 5 -29 6 0 1 -19 4 -42 6 -24 3 -43 1 -43 -4z"/>
<path d="M1335 2125 c-47 -20 -115 -109 -97 -127 7 -7 18 3 35 29 14 22 42 53
64 70 43 35 42 48 -2 28z"/>
<path d="M1036 2091 c-13 -21 163 -146 180 -128 10 9 -14 36 -50 54 -17 8 -50
31 -73 49 -45 37 -49 39 -57 25z"/>
<path d="M1700 2080 c0 -5 18 -21 39 -34 27 -17 48 -43 66 -81 15 -30 31 -55
37 -55 5 0 3 10 -3 23 -7 12 -12 24 -11 27 3 16 -35 74 -57 88 -14 9 -28 19
-31 22 -10 12 -40 19 -40 10z"/>
<path d="M1478 2060 c-176 -28 -284 -164 -233 -295 12 -33 32 -57 74 -90 36
-29 65 -61 77 -87 18 -39 18 -41 -1 -54 -31 -23 -5 -35 84 -41 l81 -6 0 30 c0
75 30 120 125 190 78 57 115 112 115 170 0 131 -140 211 -322 183z m199 -55
c38 -19 56 -37 74 -69 21 -40 22 -47 10 -87 -14 -45 -32 -64 -131 -142 -58
-45 -100 -111 -100 -159 0 -30 -15 -35 -79 -22 -27 6 -31 10 -31 41 0 48 -13
70 -86 138 -63 60 -64 61 -64 114 0 129 108 208 286 210 56 1 80 -4 121 -24z"/>
<path d="M1497 1823 c-4 -3 -7 -29 -8 -57 0 -43 -2 -48 -11 -29 -12 25 -31 35
-52 27 -37 -14 -29 -70 11 -80 25 -7 25 -9 19 -65 -5 -52 -4 -59 12 -59 13 0
22 17 36 66 15 50 24 68 42 75 15 5 24 17 24 30 0 17 -5 20 -24 17 -21 -4 -23
-2 -17 21 12 46 -8 79 -32 54z m-1 -154 c-13 -32 -14 -32 -15 -8 -1 14 4 30
11 37 19 19 20 7 4 -29z"/>
<path d="M1965 1926 c-56 -18 -125 -54 -125 -66 0 -14 12 -13 56 7 22 9 62 21
89 28 31 7 50 17 50 26 0 19 -22 20 -70 5z"/>
<path d="M1115 1823 c-69 -15 -155 -45 -155 -55 0 -11 17 -9 133 16 75 16 82
19 72 35 -6 11 -15 12 -50 4z"/>
<path d="M1824 1805 c-11 -44 -65 -129 -99 -157 -16 -14 -51 -33 -76 -42 -25
-10 -46 -24 -46 -31 0 -17 34 -11 87 16 85 42 178 184 150 229 -7 11 -10 7
-16 -15z"/>
<path d="M1135 1596 c-21 -24 -47 -58 -58 -75 -18 -29 -18 -31 -1 -38 10 -4
19 -2 22 5 2 7 24 40 49 73 55 76 45 104 -12 35z"/>
<path d="M1772 1608 c3 -7 39 -37 81 -66 63 -44 78 -50 83 -37 4 9 5 17 3 19
-2 2 -37 24 -77 49 -74 48 -97 57 -90 35z"/>
<path d="M1398 1463 c-32 -8 -19 -23 21 -23 21 0 59 -3 85 -6 37 -6 46 -4 46
9 0 8 -7 18 -16 21 -18 7 -109 6 -136 -1z"/>
<path d="M1380 1400 c0 -5 11 -10 25 -10 20 0 25 -5 25 -25 0 -36 34 -51 66
-30 19 12 24 23 22 43 -3 26 -6 27 -70 30 -43 2 -68 -1 -68 -8z"/>
</g>
</svg>
